<svg width="344" height="287" viewBox="0 0 344 287" fill="none" xmlns="http://www.w3.org/2000/svg">
<path opacity="0.1" d="M199.492 38.487C177.48 37.72 156.516 30.603 136.492 22.814C116.468 15.025 96.6499 6.39401 75.1649 2.26901C61.3469 -0.384994 45.542 -0.759995 34.41 6.66101C23.693 13.816 20.231 26.133 18.37 37.574C16.97 46.18 16.146 55.24 19.982 63.295C22.648 68.89 27.376 73.595 30.648 78.951C42.031 97.595 33.984 120.587 21.648 138.791C15.866 147.333 9.14795 155.491 4.68295 164.57C0.217954 173.649 -1.84705 184.076 2.06095 193.35C5.93095 202.55 15.161 209.45 25.154 214.301C45.454 224.165 69.368 226.986 92.7029 228.584C144.342 232.124 196.253 230.591 248.028 229.058C267.19 228.489 286.433 227.913 305.282 224.946C315.751 223.297 326.556 220.684 334.157 214.367C343.802 206.35 346.193 192.776 339.728 182.721C328.885 165.859 298.915 161.672 291.328 143.576C287.158 133.613 291.44 122.52 297.504 113.276C310.51 93.46 332.304 76.076 333.454 53.422C334.243 37.865 323.764 22.284 307.561 14.922C290.579 7.20801 267.027 8.17601 254.504 20.949C241.601 34.102 218.93 39.162 199.492 38.487Z" fill="#2F58E2"/>
<path opacity="0.1" d="M164.441 280.637C221.538 280.637 267.824 274.365 267.824 266.627C267.824 258.889 221.538 252.617 164.441 252.617C107.344 252.617 61.0579 258.889 61.0579 266.627C61.0579 274.365 107.344 280.637 164.441 280.637Z" fill="#2F58E2"/>
<path d="M219.404 99.278H220.857C221.064 99.278 221.262 99.3602 221.409 99.5065C221.555 99.6528 221.637 99.8511 221.637 100.058V123.377C221.637 123.584 221.555 123.782 221.409 123.929C221.262 124.075 221.064 124.157 220.857 124.157H219.404C219.197 124.157 218.999 124.075 218.852 123.929C218.706 123.782 218.624 123.584 218.624 123.377V100.058C218.624 99.8511 218.706 99.6528 218.852 99.5065C218.999 99.3602 219.197 99.278 219.404 99.278Z" fill="#3A3768"/>
<path d="M119.266 79.785H119.396C119.603 79.785 119.801 79.8672 119.947 80.0135C120.094 80.1598 120.176 80.3582 120.176 80.565V87.195C120.176 87.4019 120.094 87.6003 119.947 87.7466C119.801 87.8929 119.603 87.975 119.396 87.975H119.266C119.059 87.975 118.861 87.8929 118.714 87.7466C118.568 87.6003 118.486 87.4019 118.486 87.195V80.565C118.486 80.3582 118.568 80.1598 118.714 80.0135C118.861 79.8672 119.059 79.785 119.266 79.785Z" fill="#3A3768"/>
<path d="M119.204 94.784H119.548C119.755 94.784 119.953 94.8662 120.1 95.0125C120.246 95.1587 120.328 95.3571 120.328 95.564V108.264C120.328 108.471 120.246 108.669 120.1 108.816C119.953 108.962 119.755 109.044 119.548 109.044H119.204C118.997 109.044 118.799 108.962 118.653 108.816C118.506 108.669 118.424 108.471 118.424 108.264V95.565C118.424 95.4625 118.444 95.3609 118.483 95.2662C118.522 95.1714 118.58 95.0853 118.652 95.0128C118.725 94.9403 118.811 94.8827 118.905 94.8435C119 94.8042 119.102 94.784 119.204 94.784Z" fill="#3A3768"/>
<path d="M119.235 114.032H119.487C119.694 114.032 119.892 114.114 120.039 114.26C120.185 114.407 120.267 114.605 120.267 114.812V127.63C120.267 127.837 120.185 128.035 120.039 128.182C119.892 128.328 119.694 128.41 119.487 128.41H119.235C119.028 128.41 118.83 128.328 118.684 128.182C118.537 128.035 118.455 127.837 118.455 127.63V114.808C118.456 114.602 118.539 114.404 118.685 114.259C118.831 114.114 119.029 114.032 119.235 114.032Z" fill="#3A3768"/>
<path d="M132.726 52.719H206.964C210.487 52.7187 213.866 54.1179 216.357 56.6087C218.849 59.0995 220.249 62.4779 220.25 66.001V244.678C220.25 246.423 219.906 248.15 219.239 249.762C218.571 251.374 217.592 252.839 216.358 254.072C215.125 255.306 213.66 256.284 212.048 256.952C210.436 257.62 208.709 257.963 206.964 257.963H132.726C129.203 257.963 125.823 256.563 123.332 254.072C120.841 251.58 119.441 248.201 119.441 244.678V66.001C119.442 62.4781 120.842 59.0998 123.333 56.609C125.824 54.1183 129.203 52.719 132.726 52.719Z" fill="#3A3768"/>
<path d="M206.361 57.5H194.798V58.894C194.798 60.6436 194.103 62.3215 192.867 63.5591C191.63 64.7967 189.953 65.4927 188.203 65.494H151.427C149.677 65.4927 148 64.7967 146.763 63.5591C145.527 62.3215 144.832 60.6436 144.832 58.894V57.5H134.006C132.954 57.5009 131.912 57.7091 130.94 58.1126C129.968 58.5162 129.085 59.1072 128.342 59.8519C127.599 60.5966 127.009 61.4805 126.607 62.453C126.205 63.4256 125.999 64.4677 126 65.52V244.045C125.999 245.097 126.205 246.139 126.607 247.112C127.009 248.085 127.599 248.968 128.342 249.713C129.085 250.458 129.968 251.049 130.94 251.452C131.912 251.856 132.954 252.064 134.006 252.065H206.361C207.413 252.064 208.455 251.856 209.427 251.452C210.399 251.049 211.282 250.458 212.025 249.713C212.768 248.968 213.358 248.085 213.76 247.112C214.162 246.139 214.368 245.097 214.367 244.045V65.536C214.37 64.4825 214.165 63.4389 213.764 62.4647C213.363 61.4906 212.774 60.6051 212.03 59.8589C211.286 59.1126 210.403 58.5204 209.43 58.116C208.457 57.7116 207.414 57.5029 206.361 57.502V57.5Z" fill="#2F58E2"/>
<path d="M161.44 58.848H172.88C173.23 58.848 173.565 58.987 173.813 59.2343C174.06 59.4817 174.199 59.8172 174.199 60.167V60.392C174.199 60.7418 174.06 61.0773 173.813 61.3247C173.565 61.5721 173.23 61.711 172.88 61.711H161.44C161.09 61.711 160.755 61.5721 160.507 61.3247C160.26 61.0773 160.121 60.7418 160.121 60.392V60.167C160.121 59.8172 160.26 59.4817 160.507 59.2343C160.755 58.987 161.09 58.848 161.44 58.848Z" fill="#E6E8EC"/>
<path d="M177.95 61.904C178.846 61.904 179.572 61.1765 179.572 60.279C179.572 59.3815 178.846 58.654 177.95 58.654C177.054 58.654 176.328 59.3815 176.328 60.279C176.328 61.1765 177.054 61.904 177.95 61.904Z" fill="#E6E8EC"/>
<path d="M255.152 43.718C255.152 43.718 226.515 41.987 229.889 62.089C229.712 63.1084 229.863 64.1577 230.32 65.0858C230.777 66.014 231.517 66.7732 232.433 67.254C232.433 67.254 232.484 65.765 235.372 66.273C236.4 66.4438 237.444 66.4941 238.484 66.423C239.886 66.33 241.22 65.7835 242.284 64.866C242.284 64.866 250.334 61.534 253.464 48.355C253.464 48.355 255.78 45.479 255.688 44.74L250.855 46.808C250.855 46.808 252.508 50.3 251.195 53.208C251.195 53.208 251.039 46.939 250.11 47.075C249.923 47.102 247.6 48.285 247.6 48.285C247.6 48.285 250.44 54.367 248.3 58.785C248.3 58.785 249.113 51.285 246.715 48.72L243.315 50.71C243.315 50.71 246.634 56.993 244.383 62.121C244.383 62.121 244.961 54.257 242.597 51.194L239.516 53.603C239.516 53.603 242.635 59.794 240.734 64.046C240.734 64.046 240.486 54.894 238.85 54.203C238.85 54.203 236.15 56.588 235.741 57.562C235.741 57.562 237.877 62.062 236.55 64.431C236.55 64.431 235.737 58.331 235.071 58.298C235.071 58.298 232.384 62.339 232.105 65.112C232.236 62.5511 233.034 60.0689 234.421 57.912C232.871 58.2065 231.44 58.948 230.306 60.045C230.306 60.045 230.724 57.19 235.085 56.938C235.085 56.938 237.306 53.872 237.898 53.688C237.898 53.688 233.565 53.323 230.936 54.488C230.936 54.488 233.249 51.788 238.694 53.02L241.738 50.529C241.738 50.529 236.031 49.749 233.609 50.611C233.609 50.611 236.394 48.226 242.557 49.964L245.87 47.981C245.87 47.981 241.003 46.932 238.105 47.3C238.105 47.3 241.166 45.648 246.842 47.44L249.223 46.374C249.223 46.374 245.659 45.674 244.615 45.56C243.571 45.446 243.515 45.16 243.515 45.16C245.774 44.7822 248.094 45.0405 250.215 45.906C250.215 45.906 255.237 44.031 255.152 43.718Z" fill="#2F58E2"/>
<path d="M225.776 34.777C225.776 34.777 212.852 33.997 214.362 43.077C214.283 43.5376 214.352 44.0112 214.559 44.4304C214.765 44.8495 215.099 45.1927 215.512 45.411C215.512 45.411 215.536 44.73 216.842 44.965C217.304 45.0428 217.774 45.0656 218.242 45.033C218.877 44.9909 219.48 44.7419 219.96 44.324C219.96 44.324 223.599 42.818 225.014 36.862C225.014 36.862 226.058 35.562 226.014 35.23L223.83 36.164C224.248 37.0718 224.305 38.1046 223.99 39.053C223.99 39.053 223.919 36.222 223.5 36.286C223.415 36.286 222.364 36.835 222.364 36.835C222.364 36.835 223.65 39.585 222.68 41.581C222.68 41.581 223.047 38.194 221.962 37.032L220.425 37.945C220.425 37.945 221.925 40.783 220.908 43.1C220.908 43.1 221.17 39.546 220.102 38.163L218.711 39.253C218.711 39.253 220.119 42.053 219.262 43.972C219.262 43.972 219.146 39.836 218.408 39.522C217.882 39.9701 217.411 40.4805 217.008 41.042C217.008 41.042 217.974 43.086 217.375 44.142C217.375 44.142 217.008 41.386 216.695 41.372C216.064 42.3033 215.61 43.3425 215.355 44.438C215.417 43.2828 215.78 42.1637 216.406 41.191C215.705 41.3241 215.059 41.6592 214.546 42.155C214.546 42.155 214.736 40.864 216.706 40.755C217.077 40.2213 217.504 39.728 217.978 39.283C216.915 39.1928 215.846 39.3169 214.832 39.648C214.832 39.648 215.876 38.432 218.332 38.984L219.692 37.86C218.473 37.6792 217.234 37.6917 216.019 37.897C216.019 37.897 217.277 36.82 220.063 37.604L221.563 36.704C220.411 36.4523 219.231 36.3515 218.053 36.404C219.329 35.9232 220.741 35.945 222.002 36.465L223.073 35.985C223.073 35.985 221.461 35.668 220.988 35.617C220.515 35.566 220.488 35.436 220.488 35.436C221.509 35.266 222.557 35.384 223.515 35.777C224.297 35.5119 225.054 35.1772 225.776 34.777Z" fill="#2F58E2"/>
<path opacity="0.1" d="M293.914 265.571C298.972 265.571 303.073 264.877 303.073 264.021C303.073 263.165 298.972 262.471 293.914 262.471C288.856 262.471 284.755 263.165 284.755 264.021C284.755 264.877 288.856 265.571 293.914 265.571Z" fill="#2F58E2"/>
<path opacity="0.1" d="M30.982 278.293C36.0404 278.293 40.141 277.599 40.141 276.743C40.141 275.887 36.0404 275.193 30.982 275.193C25.9236 275.193 21.823 275.887 21.823 276.743C21.823 277.599 25.9236 278.293 30.982 278.293Z" fill="#2F58E2"/>
<path opacity="0.1" d="M66.411 286.61C71.4693 286.61 75.57 285.916 75.57 285.06C75.57 284.204 71.4693 283.51 66.411 283.51C61.3526 283.51 57.252 284.204 57.252 285.06C57.252 285.916 61.3526 286.61 66.411 286.61Z" fill="#2F58E2"/>
<path d="M95.99 152.048C96.0384 152.095 96.1007 152.125 96.1675 152.133C96.2344 152.142 96.3022 152.129 96.361 152.096C96.2357 152.098 96.1107 152.082 95.99 152.048Z" fill="url(#paint0_linear_1_547)"/>
<path opacity="0.1" d="M96.0829 151.009C96.028 151.037 95.9659 151.047 95.9049 151.039C95.8439 151.03 95.787 151.003 95.7419 150.961C95.8527 150.994 95.9675 151.01 96.0829 151.009Z" fill="black"/>
<path d="M166.55 170.182L190.512 146.082C190.905 145.688 191.125 145.155 191.125 144.599C191.125 144.043 190.905 143.51 190.512 143.116L187.564 140.172C187.372 139.977 187.142 139.822 186.89 139.717C186.637 139.611 186.366 139.557 186.092 139.557C185.818 139.557 185.547 139.611 185.294 139.717C185.042 139.822 184.812 139.977 184.62 140.172L165.076 159.828L155.951 150.628C155.758 150.434 155.528 150.28 155.275 150.175C155.022 150.07 154.751 150.016 154.477 150.016C154.203 150.016 153.932 150.07 153.679 150.175C153.426 150.28 153.196 150.434 153.003 150.628L150.055 153.611C149.665 154.006 149.446 154.539 149.446 155.094C149.446 155.649 149.665 156.182 150.055 156.577L163.606 170.199C163.799 170.394 164.028 170.548 164.281 170.654C164.534 170.76 164.806 170.814 165.08 170.814C165.354 170.814 165.626 170.76 165.879 170.654C166.132 170.548 166.361 170.394 166.554 170.199L166.55 170.182Z" fill="white"/>
<defs>
<linearGradient id="paint0_linear_1_547" x1="96.1773" y1="152.071" x2="96.1773" y2="152.048" gradientUnits="userSpaceOnUse">
<stop stop-color="#808080" stop-opacity="0.251"/>
<stop offset="0.54" stop-color="#808080" stop-opacity="0.122"/>
<stop offset="1" stop-color="#808080" stop-opacity="0.102"/>
</linearGradient>
</defs>
</svg>
