<svg width="344" height="287" viewBox="0 0 344 287" fill="none" xmlns="http://www.w3.org/2000/svg">
<path opacity="0.1" d="M199.492 37.956C177.48 37.189 156.516 30.072 136.492 22.283C116.468 14.494 96.6499 5.863 75.1649 1.738C61.3469 -0.916 45.542 -1.291 34.41 6.13C23.693 13.285 20.231 25.602 18.37 37.043C16.97 45.649 16.146 54.709 19.982 62.764C22.648 68.359 27.376 73.064 30.648 78.42C42.031 97.064 33.984 120.056 21.648 138.26C15.866 146.802 9.14795 154.96 4.68295 164.039C0.217954 173.118 -1.84705 183.545 2.06095 192.819C5.93095 202.019 15.161 208.919 25.154 213.77C45.454 223.634 69.368 226.455 92.7029 228.053C144.342 231.593 196.253 230.06 248.028 228.527C267.19 227.958 286.433 227.382 305.282 224.415C315.751 222.766 326.556 220.153 334.157 213.836C343.802 205.819 346.193 192.245 339.728 182.19C328.885 165.328 298.915 161.141 291.328 143.045C287.158 133.082 291.44 121.989 297.504 112.745C310.51 92.929 332.304 75.545 333.454 52.891C334.243 37.334 323.764 21.753 307.561 14.391C290.579 6.677 267.027 7.645 254.504 20.418C241.601 33.571 218.93 38.631 199.492 37.956Z" fill="#2F58E2"/>
<path opacity="0.1" d="M164.441 280.106C221.538 280.106 267.824 273.834 267.824 266.096C267.824 258.358 221.538 252.086 164.441 252.086C107.344 252.086 61.058 258.358 61.058 266.096C61.058 273.834 107.344 280.106 164.441 280.106Z" fill="#2F58E2"/>
<path d="M219.404 98.747H220.857C221.064 98.747 221.262 98.8292 221.408 98.9755C221.555 99.1218 221.637 99.3201 221.637 99.527V122.846C221.637 123.053 221.555 123.251 221.408 123.398C221.262 123.544 221.064 123.626 220.857 123.626H219.404C219.197 123.626 218.999 123.544 218.852 123.398C218.706 123.251 218.624 123.053 218.624 122.846V99.527C218.624 99.3201 218.706 99.1218 218.852 98.9755C218.999 98.8292 219.197 98.747 219.404 98.747Z" fill="#3A3768"/>
<path d="M119.266 79.254H119.396C119.603 79.254 119.801 79.3362 119.948 79.4825C120.094 79.6288 120.176 79.8272 120.176 80.034V86.664C120.176 86.8709 120.094 87.0693 119.948 87.2156C119.801 87.3618 119.603 87.444 119.396 87.444H119.266C119.059 87.444 118.861 87.3618 118.714 87.2156C118.568 87.0693 118.486 86.8709 118.486 86.664V80.034C118.486 79.8272 118.568 79.6288 118.714 79.4825C118.861 79.3362 119.059 79.254 119.266 79.254Z" fill="#3A3768"/>
<path d="M119.204 94.253H119.548C119.755 94.253 119.953 94.3352 120.099 94.4814C120.246 94.6277 120.328 94.8261 120.328 95.033V107.733C120.328 107.94 120.246 108.138 120.099 108.285C119.953 108.431 119.755 108.513 119.548 108.513H119.204C118.997 108.513 118.799 108.431 118.652 108.285C118.506 108.138 118.424 107.94 118.424 107.733V95.034C118.424 94.9315 118.444 94.8299 118.483 94.7352C118.522 94.6404 118.58 94.5543 118.652 94.4818C118.724 94.4093 118.811 94.3517 118.905 94.3125C119 94.2732 119.101 94.253 119.204 94.253Z" fill="#3A3768"/>
<path d="M119.235 113.501H119.487C119.694 113.501 119.892 113.583 120.038 113.729C120.185 113.876 120.267 114.074 120.267 114.281V127.099C120.267 127.306 120.185 127.504 120.038 127.651C119.892 127.797 119.694 127.879 119.487 127.879H119.235C119.028 127.879 118.83 127.797 118.683 127.651C118.537 127.504 118.455 127.306 118.455 127.099V114.277C118.456 114.071 118.539 113.873 118.685 113.728C118.831 113.583 119.029 113.501 119.235 113.501Z" fill="#3A3768"/>
<path d="M132.726 52.188H206.964C210.487 52.1877 213.866 53.5869 216.357 56.0777C218.849 58.5685 220.249 61.9469 220.25 65.47V244.147C220.25 245.892 219.906 247.619 219.239 249.231C218.571 250.843 217.592 252.308 216.358 253.541C215.125 254.775 213.66 255.753 212.048 256.421C210.436 257.089 208.709 257.432 206.964 257.432H132.726C129.203 257.432 125.823 256.032 123.332 253.541C120.841 251.049 119.441 247.67 119.441 244.147V65.47C119.442 61.9471 120.842 58.5688 123.333 56.078C125.824 53.5872 129.203 52.188 132.726 52.188Z" fill="#3A3768"/>
<path d="M206.361 56.969H194.798V58.363C194.798 60.1126 194.103 61.7905 192.867 63.0281C191.63 64.2657 189.953 64.9617 188.203 64.963H151.427C149.677 64.9617 148 64.2657 146.763 63.0281C145.527 61.7905 144.832 60.1126 144.832 58.363V56.969H134.006C132.954 56.9699 131.912 57.1781 130.94 57.5816C129.968 57.9852 129.085 58.5762 128.342 59.3209C127.599 60.0656 127.009 60.9495 126.607 61.922C126.205 62.8946 125.999 63.9367 126 64.989V243.514C125.999 244.566 126.205 245.608 126.607 246.581C127.009 247.554 127.599 248.437 128.342 249.182C129.085 249.927 129.968 250.518 130.94 250.921C131.912 251.325 132.954 251.533 134.006 251.534H206.361C207.413 251.533 208.455 251.325 209.427 250.921C210.399 250.518 211.282 249.927 212.025 249.182C212.768 248.437 213.358 247.554 213.76 246.581C214.162 245.608 214.368 244.566 214.367 243.514V65.005C214.37 63.9515 214.165 62.9079 213.764 61.9337C213.363 60.9596 212.774 60.0741 212.03 59.3279C211.286 58.5816 210.403 57.9894 209.43 57.585C208.457 57.1805 207.414 56.9719 206.361 56.971V56.969Z" fill="#2F58E2"/>
<path d="M161.44 58.317H172.88C173.23 58.317 173.565 58.456 173.813 58.7033C174.06 58.9507 174.199 59.2862 174.199 59.636V59.861C174.199 60.2108 174.06 60.5463 173.813 60.7937C173.565 61.041 173.23 61.18 172.88 61.18H161.44C161.09 61.18 160.755 61.041 160.507 60.7937C160.26 60.5463 160.121 60.2108 160.121 59.861V59.636C160.121 59.2862 160.26 58.9507 160.507 58.7033C160.755 58.456 161.09 58.317 161.44 58.317Z" fill="#E6E8EC"/>
<path d="M177.95 61.373C178.846 61.373 179.572 60.6454 179.572 59.748C179.572 58.8505 178.846 58.123 177.95 58.123C177.054 58.123 176.328 58.8505 176.328 59.748C176.328 60.6454 177.054 61.373 177.95 61.373Z" fill="#E6E8EC"/>
<path d="M255.152 43.187C255.152 43.187 226.515 41.456 229.889 61.558C229.712 62.5774 229.863 63.6267 230.32 64.5548C230.777 65.483 231.517 66.2422 232.433 66.723C232.433 66.723 232.484 65.234 235.372 65.742C236.4 65.9127 237.444 65.9631 238.484 65.892C239.886 65.799 241.22 65.2525 242.284 64.335C242.284 64.335 250.334 61.003 253.464 47.824C253.464 47.824 255.78 44.948 255.688 44.209L250.855 46.277C250.855 46.277 252.508 49.769 251.195 52.677C251.195 52.677 251.039 46.408 250.11 46.544C249.923 46.571 247.6 47.754 247.6 47.754C247.6 47.754 250.44 53.836 248.3 58.254C248.3 58.254 249.113 50.754 246.715 48.189L243.315 50.179C243.315 50.179 246.634 56.462 244.383 61.59C244.383 61.59 244.961 53.726 242.597 50.663L239.516 53.072C239.516 53.072 242.635 59.263 240.734 63.515C240.734 63.515 240.486 54.363 238.85 53.672C238.85 53.672 236.15 56.057 235.741 57.031C235.741 57.031 237.877 61.531 236.55 63.9C236.55 63.9 235.737 57.8 235.071 57.767C235.071 57.767 232.384 61.808 232.105 64.581C232.236 62.0201 233.034 59.5379 234.421 57.381C232.871 57.6755 231.44 58.4169 230.306 59.514C230.306 59.514 230.724 56.659 235.085 56.407C235.085 56.407 237.306 53.341 237.898 53.157C237.898 53.157 233.565 52.792 230.936 53.957C230.936 53.957 233.249 51.257 238.694 52.489L241.738 49.998C241.738 49.998 236.031 49.218 233.609 50.08C233.609 50.08 236.394 47.695 242.557 49.433L245.87 47.45C245.87 47.45 241.003 46.401 238.105 46.769C238.105 46.769 241.166 45.117 246.842 46.909L249.223 45.843C249.223 45.843 245.659 45.143 244.615 45.029C243.571 44.915 243.515 44.629 243.515 44.629C245.774 44.2512 248.094 44.5095 250.215 45.375C250.215 45.375 255.237 43.5 255.152 43.187Z" fill="#2F58E2"/>
<path d="M225.776 34.246C225.776 34.246 212.852 33.466 214.362 42.546C214.283 43.0066 214.352 43.4802 214.559 43.8994C214.765 44.3185 215.099 44.6617 215.512 44.88C215.512 44.88 215.536 44.199 216.842 44.434C217.304 44.5118 217.774 44.5346 218.242 44.502C218.877 44.4599 219.48 44.2109 219.96 43.793C219.96 43.793 223.599 42.287 225.014 36.331C225.014 36.331 226.058 35.031 226.014 34.699L223.83 35.633C224.248 36.5408 224.305 37.5736 223.99 38.522C223.99 38.522 223.919 35.691 223.5 35.755C223.415 35.755 222.364 36.304 222.364 36.304C222.364 36.304 223.65 39.054 222.68 41.05C222.68 41.05 223.047 37.663 221.962 36.501L220.425 37.414C220.425 37.414 221.925 40.252 220.908 42.569C220.908 42.569 221.17 39.015 220.102 37.632L218.711 38.722C218.711 38.722 220.119 41.522 219.262 43.441C219.262 43.441 219.146 39.305 218.408 38.991C217.882 39.4391 217.411 39.9495 217.008 40.511C217.008 40.511 217.974 42.555 217.375 43.611C217.375 43.611 217.008 40.855 216.695 40.841C216.064 41.7723 215.61 42.8115 215.355 43.907C215.417 42.7518 215.78 41.6327 216.406 40.66C215.705 40.7931 215.059 41.1282 214.546 41.624C214.546 41.624 214.736 40.333 216.706 40.224C217.077 39.6903 217.504 39.1969 217.978 38.752C216.915 38.6618 215.846 38.7859 214.832 39.117C214.832 39.117 215.876 37.901 218.332 38.453L219.692 37.329C218.473 37.1482 217.234 37.1607 216.019 37.366C216.019 37.366 217.277 36.289 220.063 37.073L221.563 36.173C220.411 35.9213 219.231 35.8205 218.053 35.873C219.329 35.3922 220.741 35.414 222.002 35.934L223.073 35.454C223.073 35.454 221.461 35.137 220.988 35.086C220.515 35.035 220.488 34.905 220.488 34.905C221.509 34.7349 222.557 34.853 223.515 35.246C224.297 34.9808 225.054 34.6462 225.776 34.246Z" fill="#2F58E2"/>
<path opacity="0.1" d="M293.914 265.04C298.972 265.04 303.073 264.346 303.073 263.49C303.073 262.634 298.972 261.94 293.914 261.94C288.856 261.94 284.755 262.634 284.755 263.49C284.755 264.346 288.856 265.04 293.914 265.04Z" fill="#2F58E2"/>
<path opacity="0.1" d="M30.982 277.762C36.0404 277.762 40.141 277.068 40.141 276.212C40.141 275.356 36.0404 274.662 30.982 274.662C25.9236 274.662 21.823 275.356 21.823 276.212C21.823 277.068 25.9236 277.762 30.982 277.762Z" fill="#2F58E2"/>
<path opacity="0.1" d="M66.411 286.079C71.4693 286.079 75.57 285.385 75.57 284.529C75.57 283.673 71.4693 282.979 66.411 282.979C61.3526 282.979 57.252 283.673 57.252 284.529C57.252 285.385 61.3526 286.079 66.411 286.079Z" fill="#2F58E2"/>
<path d="M95.99 151.517C96.0384 151.564 96.1007 151.594 96.1675 151.602C96.2344 151.611 96.3022 151.598 96.361 151.565C96.2357 151.567 96.1107 151.551 95.99 151.517Z" fill="url(#paint0_linear_1_677)"/>
<path opacity="0.1" d="M96.0829 150.478C96.028 150.506 95.9659 150.516 95.9049 150.508C95.8439 150.499 95.787 150.472 95.7419 150.43C95.8527 150.463 95.9675 150.479 96.0829 150.478Z" fill="black"/>
<path d="M171.593 169.741C167.37 169.741 163.242 168.489 159.731 166.143C156.22 163.797 153.483 160.462 151.867 156.561C150.251 152.659 149.828 148.366 150.652 144.225C151.476 140.083 153.51 136.279 156.496 133.293C159.482 130.307 163.286 128.273 167.428 127.449C171.569 126.625 175.862 127.048 179.764 128.664C183.665 130.28 187 133.017 189.346 136.528C191.692 140.039 192.944 144.167 192.944 148.39C192.944 154.053 190.695 159.483 186.69 163.487C182.686 167.492 177.256 169.741 171.593 169.741Z" fill="white"/>
<path d="M180.019 146.284H173.701V139.966C173.701 139.407 173.479 138.872 173.084 138.477C172.689 138.082 172.154 137.86 171.595 137.86C171.036 137.86 170.501 138.082 170.106 138.477C169.711 138.872 169.489 139.407 169.489 139.966V146.284H163.171C162.894 146.284 162.621 146.338 162.365 146.444C162.109 146.55 161.877 146.705 161.682 146.901C161.486 147.096 161.331 147.329 161.225 147.584C161.119 147.84 161.065 148.113 161.065 148.39C161.065 148.667 161.119 148.94 161.225 149.196C161.331 149.451 161.486 149.684 161.682 149.879C161.877 150.075 162.109 150.23 162.365 150.336C162.621 150.441 162.894 150.496 163.171 150.496H169.489V156.814C169.489 157.373 169.711 157.908 170.106 158.303C170.501 158.698 171.036 158.92 171.595 158.92C172.154 158.92 172.689 158.698 173.084 158.303C173.479 157.908 173.701 157.373 173.701 156.814V150.496H180.019C180.295 150.496 180.569 150.441 180.825 150.336C181.08 150.23 181.313 150.075 181.508 149.879C181.704 149.684 181.859 149.451 181.965 149.196C182.07 148.94 182.125 148.667 182.125 148.39C182.125 148.113 182.07 147.84 181.965 147.584C181.859 147.329 181.704 147.096 181.508 146.901C181.313 146.705 181.08 146.55 180.825 146.444C180.569 146.338 180.295 146.284 180.019 146.284Z" fill="#2F58E2"/>
<defs>
<linearGradient id="paint0_linear_1_677" x1="96.1773" y1="151.54" x2="96.1773" y2="151.517" gradientUnits="userSpaceOnUse">
<stop stop-color="#808080" stop-opacity="0.251"/>
<stop offset="0.54" stop-color="#808080" stop-opacity="0.122"/>
<stop offset="1" stop-color="#808080" stop-opacity="0.102"/>
</linearGradient>
</defs>
</svg>
