<svg width="344" height="287" viewBox="0 0 344 287" fill="none" xmlns="http://www.w3.org/2000/svg">
<path opacity="0.1" d="M199.492 37.956C177.48 37.189 156.516 30.072 136.492 22.283C116.468 14.494 96.6499 5.863 75.1649 1.738C61.3469 -0.916 45.542 -1.291 34.41 6.13C23.693 13.285 20.231 25.602 18.37 37.043C16.97 45.649 16.146 54.709 19.982 62.764C22.648 68.359 27.376 73.064 30.648 78.42C42.031 97.064 33.984 120.056 21.648 138.26C15.866 146.802 9.14795 154.96 4.68295 164.039C0.217954 173.118 -1.84705 183.545 2.06095 192.819C5.93095 202.019 15.161 208.919 25.154 213.77C45.454 223.634 69.368 226.455 92.7029 228.053C144.342 231.593 196.253 230.06 248.028 228.527C267.19 227.958 286.433 227.382 305.282 224.415C315.751 222.766 326.556 220.153 334.157 213.836C343.802 205.819 346.193 192.245 339.728 182.19C328.885 165.328 298.915 161.141 291.328 143.045C287.158 133.082 291.44 121.989 297.504 112.745C310.51 92.929 332.304 75.545 333.454 52.891C334.243 37.334 323.764 21.753 307.561 14.391C290.579 6.677 267.027 7.645 254.504 20.418C241.601 33.571 218.93 38.631 199.492 37.956Z" fill="#2F58E2"/>
<path opacity="0.1" d="M164.441 280.106C221.538 280.106 267.824 273.834 267.824 266.096C267.824 258.358 221.538 252.086 164.441 252.086C107.344 252.086 61.0579 258.358 61.0579 266.096C61.0579 273.834 107.344 280.106 164.441 280.106Z" fill="#2F58E2"/>
<path d="M219.404 98.747H220.857C221.064 98.747 221.262 98.8292 221.409 98.9755C221.555 99.1218 221.637 99.3201 221.637 99.527V122.846C221.637 123.053 221.555 123.251 221.409 123.398C221.262 123.544 221.064 123.626 220.857 123.626H219.404C219.197 123.626 218.999 123.544 218.852 123.398C218.706 123.251 218.624 123.053 218.624 122.846V99.527C218.624 99.3201 218.706 99.1218 218.852 98.9755C218.999 98.8292 219.197 98.747 219.404 98.747Z" fill="#3A3768"/>
<path d="M119.266 79.254H119.396C119.603 79.254 119.801 79.3362 119.947 79.4825C120.094 79.6288 120.176 79.8272 120.176 80.034V86.664C120.176 86.8709 120.094 87.0693 119.947 87.2156C119.801 87.3618 119.603 87.444 119.396 87.444H119.266C119.059 87.444 118.861 87.3618 118.714 87.2156C118.568 87.0693 118.486 86.8709 118.486 86.664V80.034C118.486 79.8272 118.568 79.6288 118.714 79.4825C118.861 79.3362 119.059 79.254 119.266 79.254Z" fill="#3A3768"/>
<path d="M119.204 94.253H119.548C119.755 94.253 119.953 94.3352 120.1 94.4814C120.246 94.6277 120.328 94.8261 120.328 95.033V107.733C120.328 107.94 120.246 108.138 120.1 108.285C119.953 108.431 119.755 108.513 119.548 108.513H119.204C118.997 108.513 118.799 108.431 118.653 108.285C118.506 108.138 118.424 107.94 118.424 107.733V95.034C118.424 94.9315 118.444 94.8299 118.483 94.7352C118.522 94.6404 118.58 94.5543 118.652 94.4818C118.725 94.4093 118.811 94.3517 118.905 94.3125C119 94.2732 119.102 94.253 119.204 94.253Z" fill="#3A3768"/>
<path d="M119.235 113.501H119.487C119.694 113.501 119.892 113.583 120.039 113.729C120.185 113.876 120.267 114.074 120.267 114.281V127.099C120.267 127.306 120.185 127.504 120.039 127.651C119.892 127.797 119.694 127.879 119.487 127.879H119.235C119.028 127.879 118.83 127.797 118.684 127.651C118.537 127.504 118.455 127.306 118.455 127.099V114.277C118.456 114.071 118.539 113.873 118.685 113.728C118.831 113.583 119.029 113.501 119.235 113.501Z" fill="#3A3768"/>
<path d="M132.726 52.188H206.964C210.487 52.1877 213.866 53.5869 216.357 56.0777C218.849 58.5685 220.249 61.9469 220.25 65.47V244.147C220.25 245.892 219.906 247.619 219.239 249.231C218.571 250.843 217.592 252.308 216.358 253.541C215.125 254.775 213.66 255.753 212.048 256.421C210.436 257.089 208.709 257.432 206.964 257.432H132.726C129.203 257.432 125.823 256.032 123.332 253.541C120.841 251.049 119.441 247.67 119.441 244.147V65.47C119.442 61.9471 120.842 58.5688 123.333 56.078C125.824 53.5872 129.203 52.188 132.726 52.188Z" fill="#3A3768"/>
<path d="M206.361 56.969H194.798V58.363C194.798 60.1126 194.103 61.7905 192.867 63.0281C191.63 64.2657 189.953 64.9617 188.203 64.963H151.427C149.677 64.9617 148 64.2657 146.763 63.0281C145.527 61.7905 144.832 60.1126 144.832 58.363V56.969H134.006C132.954 56.9699 131.912 57.1781 130.94 57.5816C129.968 57.9852 129.085 58.5762 128.342 59.3209C127.599 60.0656 127.009 60.9495 126.607 61.922C126.205 62.8946 125.999 63.9367 126 64.989V243.514C125.999 244.566 126.205 245.608 126.607 246.581C127.009 247.554 127.599 248.437 128.342 249.182C129.085 249.927 129.968 250.518 130.94 250.921C131.912 251.325 132.954 251.533 134.006 251.534H206.361C207.413 251.533 208.455 251.325 209.427 250.921C210.399 250.518 211.282 249.927 212.025 249.182C212.768 248.437 213.358 247.554 213.76 246.581C214.162 245.608 214.368 244.566 214.367 243.514V65.005C214.37 63.9515 214.165 62.9079 213.764 61.9337C213.363 60.9596 212.774 60.0741 212.03 59.3279C211.286 58.5816 210.403 57.9894 209.43 57.585C208.457 57.1805 207.414 56.9719 206.361 56.971V56.969Z" fill="#2F58E2"/>
<path d="M161.44 58.317H172.88C173.23 58.317 173.565 58.456 173.813 58.7033C174.06 58.9507 174.199 59.2862 174.199 59.636V59.861C174.199 60.2108 174.06 60.5463 173.813 60.7937C173.565 61.041 173.23 61.18 172.88 61.18H161.44C161.09 61.18 160.755 61.041 160.507 60.7937C160.26 60.5463 160.121 60.2108 160.121 59.861V59.636C160.121 59.2862 160.26 58.9507 160.507 58.7033C160.755 58.456 161.09 58.317 161.44 58.317Z" fill="#E6E8EC"/>
<path d="M177.95 61.373C178.846 61.373 179.572 60.6454 179.572 59.748C179.572 58.8505 178.846 58.123 177.95 58.123C177.054 58.123 176.328 58.8505 176.328 59.748C176.328 60.6454 177.054 61.373 177.95 61.373Z" fill="#E6E8EC"/>
<path d="M255.152 43.187C255.152 43.187 226.515 41.456 229.889 61.558C229.712 62.5774 229.863 63.6267 230.32 64.5548C230.777 65.483 231.517 66.2422 232.433 66.723C232.433 66.723 232.484 65.234 235.372 65.742C236.4 65.9127 237.444 65.9631 238.484 65.892C239.886 65.799 241.22 65.2525 242.284 64.335C242.284 64.335 250.334 61.003 253.464 47.824C253.464 47.824 255.78 44.948 255.688 44.209L250.855 46.277C250.855 46.277 252.508 49.769 251.195 52.677C251.195 52.677 251.039 46.408 250.11 46.544C249.923 46.571 247.6 47.754 247.6 47.754C247.6 47.754 250.44 53.836 248.3 58.254C248.3 58.254 249.113 50.754 246.715 48.189L243.315 50.179C243.315 50.179 246.634 56.462 244.383 61.59C244.383 61.59 244.961 53.726 242.597 50.663L239.516 53.072C239.516 53.072 242.635 59.263 240.734 63.515C240.734 63.515 240.486 54.363 238.85 53.672C238.85 53.672 236.15 56.057 235.741 57.031C235.741 57.031 237.877 61.531 236.55 63.9C236.55 63.9 235.737 57.8 235.071 57.767C235.071 57.767 232.384 61.808 232.105 64.581C232.236 62.0201 233.034 59.5379 234.421 57.381C232.871 57.6755 231.44 58.4169 230.306 59.514C230.306 59.514 230.724 56.659 235.085 56.407C235.085 56.407 237.306 53.341 237.898 53.157C237.898 53.157 233.565 52.792 230.936 53.957C230.936 53.957 233.249 51.257 238.694 52.489L241.738 49.998C241.738 49.998 236.031 49.218 233.609 50.08C233.609 50.08 236.394 47.695 242.557 49.433L245.87 47.45C245.87 47.45 241.003 46.401 238.105 46.769C238.105 46.769 241.166 45.117 246.842 46.909L249.223 45.843C249.223 45.843 245.659 45.143 244.615 45.029C243.571 44.915 243.515 44.629 243.515 44.629C245.774 44.2512 248.094 44.5095 250.215 45.375C250.215 45.375 255.237 43.5 255.152 43.187Z" fill="#2F58E2"/>
<path d="M225.776 34.246C225.776 34.246 212.852 33.466 214.362 42.546C214.283 43.0066 214.352 43.4802 214.559 43.8994C214.765 44.3185 215.099 44.6617 215.512 44.88C215.512 44.88 215.536 44.199 216.842 44.434C217.304 44.5118 217.774 44.5346 218.242 44.502C218.877 44.4599 219.48 44.2109 219.96 43.793C219.96 43.793 223.599 42.287 225.014 36.331C225.014 36.331 226.058 35.031 226.014 34.699L223.83 35.633C224.248 36.5408 224.305 37.5736 223.99 38.522C223.99 38.522 223.919 35.691 223.5 35.755C223.415 35.755 222.364 36.304 222.364 36.304C222.364 36.304 223.65 39.054 222.68 41.05C222.68 41.05 223.047 37.663 221.962 36.501L220.425 37.414C220.425 37.414 221.925 40.252 220.908 42.569C220.908 42.569 221.17 39.015 220.102 37.632L218.711 38.722C218.711 38.722 220.119 41.522 219.262 43.441C219.262 43.441 219.146 39.305 218.408 38.991C217.882 39.4391 217.411 39.9495 217.008 40.511C217.008 40.511 217.974 42.555 217.375 43.611C217.375 43.611 217.008 40.855 216.695 40.841C216.064 41.7723 215.61 42.8115 215.355 43.907C215.417 42.7518 215.78 41.6327 216.406 40.66C215.705 40.7931 215.059 41.1282 214.546 41.624C214.546 41.624 214.736 40.333 216.706 40.224C217.077 39.6903 217.504 39.1969 217.978 38.752C216.915 38.6618 215.846 38.7859 214.832 39.117C214.832 39.117 215.876 37.901 218.332 38.453L219.692 37.329C218.473 37.1482 217.234 37.1607 216.019 37.366C216.019 37.366 217.277 36.289 220.063 37.073L221.563 36.173C220.411 35.9213 219.231 35.8205 218.053 35.873C219.329 35.3922 220.741 35.414 222.002 35.934L223.073 35.454C223.073 35.454 221.461 35.137 220.988 35.086C220.515 35.035 220.488 34.905 220.488 34.905C221.509 34.7349 222.557 34.853 223.515 35.246C224.297 34.9808 225.054 34.6462 225.776 34.246Z" fill="#2F58E2"/>
<path opacity="0.1" d="M293.914 265.04C298.972 265.04 303.073 264.346 303.073 263.49C303.073 262.634 298.972 261.94 293.914 261.94C288.856 261.94 284.755 262.634 284.755 263.49C284.755 264.346 288.856 265.04 293.914 265.04Z" fill="#2F58E2"/>
<path opacity="0.1" d="M30.982 277.762C36.0404 277.762 40.141 277.068 40.141 276.212C40.141 275.356 36.0404 274.662 30.982 274.662C25.9236 274.662 21.823 275.356 21.823 276.212C21.823 277.068 25.9236 277.762 30.982 277.762Z" fill="#2F58E2"/>
<path opacity="0.1" d="M66.411 286.079C71.4693 286.079 75.57 285.385 75.57 284.529C75.57 283.673 71.4693 282.979 66.411 282.979C61.3526 282.979 57.252 283.673 57.252 284.529C57.252 285.385 61.3526 286.079 66.411 286.079Z" fill="#2F58E2"/>
<path d="M95.99 151.517C96.0384 151.564 96.1007 151.594 96.1675 151.602C96.2344 151.611 96.3022 151.598 96.361 151.565C96.2357 151.567 96.1107 151.551 95.99 151.517Z" fill="url(#paint0_linear_1_598)"/>
<path opacity="0.1" d="M96.0829 150.478C96.028 150.506 95.9659 150.516 95.9049 150.508C95.8439 150.499 95.787 150.472 95.7419 150.43C95.8527 150.463 95.9675 150.479 96.0829 150.478Z" fill="black"/>
<path d="M188.856 130.507H162.695V130.985H188.856C190.144 130.985 191.379 131.497 192.29 132.408C193.201 133.318 193.713 134.554 193.713 135.842C193.713 137.13 193.201 138.365 192.29 139.276C191.379 140.186 190.144 140.698 188.856 140.698H149.27C147.982 140.698 146.747 140.186 145.836 139.276C144.925 138.365 144.414 137.13 144.414 135.842C144.414 134.554 144.925 133.318 145.836 132.408C146.747 131.497 147.982 130.985 149.27 130.985H150.749V130.507H149.27C147.855 130.507 146.499 131.069 145.498 132.069C144.498 133.07 143.936 134.426 143.936 135.841C143.936 137.256 144.498 138.612 145.498 139.613C146.499 140.613 147.855 141.175 149.27 141.175H188.856C190.271 141.175 191.627 140.613 192.628 139.613C193.628 138.612 194.19 137.256 194.19 135.841C194.19 134.426 193.628 133.07 192.628 132.069C191.627 131.069 190.271 130.507 188.856 130.507Z" fill="white"/>
<path d="M153.701 129.244C153.511 129.239 153.323 129.272 153.146 129.341C152.969 129.41 152.808 129.514 152.672 129.646C152.536 129.779 152.428 129.937 152.354 130.112C152.28 130.287 152.242 130.475 152.242 130.665C152.242 130.854 152.28 131.042 152.354 131.217C152.428 131.392 152.536 131.55 152.672 131.683C152.808 131.815 152.969 131.919 153.146 131.988C153.323 132.057 153.511 132.09 153.701 132.085H159.933C160.122 132.092 160.311 132.061 160.487 131.995C160.664 131.928 160.826 131.827 160.964 131.696C161.101 131.566 161.211 131.41 161.287 131.237C161.363 131.064 161.404 130.878 161.407 130.689C161.41 130.499 161.375 130.312 161.305 130.136C161.235 129.961 161.13 129.801 160.997 129.666C160.864 129.532 160.706 129.425 160.531 129.353C160.357 129.28 160.169 129.243 159.98 129.244H153.701Z" fill="#3F3D56"/>
<path d="M151.23 134.42C151.04 134.415 150.851 134.448 150.675 134.517C150.498 134.586 150.337 134.69 150.201 134.823C150.065 134.955 149.957 135.113 149.883 135.288C149.809 135.463 149.771 135.651 149.771 135.841C149.771 136.03 149.809 136.218 149.883 136.393C149.957 136.568 150.065 136.726 150.201 136.859C150.337 136.991 150.498 137.095 150.675 137.164C150.851 137.233 151.04 137.266 151.23 137.261H186.848C187.037 137.268 187.225 137.237 187.402 137.171C187.579 137.104 187.741 137.003 187.878 136.873C188.016 136.742 188.125 136.586 188.202 136.413C188.278 136.24 188.319 136.054 188.322 135.865C188.325 135.675 188.29 135.488 188.22 135.312C188.149 135.137 188.045 134.977 187.912 134.842C187.779 134.708 187.621 134.601 187.446 134.529C187.271 134.456 187.084 134.419 186.895 134.42H151.23Z" fill="#1AFF00"/>
<path d="M188.856 147.992H162.695V148.47H188.856C190.144 148.47 191.379 148.982 192.29 149.893C193.201 150.803 193.713 152.039 193.713 153.327C193.713 154.615 193.201 155.85 192.29 156.761C191.379 157.671 190.144 158.183 188.856 158.183H149.27C147.982 158.183 146.747 157.671 145.836 156.761C144.925 155.85 144.414 154.615 144.414 153.327C144.414 152.039 144.925 150.803 145.836 149.893C146.747 148.982 147.982 148.47 149.27 148.47H150.749V147.992H149.27C147.855 147.992 146.499 148.554 145.498 149.554C144.498 150.555 143.936 151.911 143.936 153.326C143.936 154.741 144.498 156.097 145.498 157.098C146.499 158.098 147.855 158.66 149.27 158.66H188.856C190.271 158.66 191.627 158.098 192.628 157.098C193.628 156.097 194.19 154.741 194.19 153.326C194.19 151.911 193.628 150.555 192.628 149.554C191.627 148.554 190.271 147.992 188.856 147.992Z" fill="white"/>
<path d="M153.701 146.968C153.511 146.963 153.323 146.996 153.146 147.065C152.969 147.134 152.808 147.238 152.672 147.37C152.536 147.503 152.428 147.661 152.354 147.836C152.28 148.011 152.242 148.199 152.242 148.389C152.242 148.578 152.28 148.766 152.354 148.941C152.428 149.116 152.536 149.274 152.672 149.407C152.808 149.539 152.969 149.643 153.146 149.712C153.323 149.781 153.511 149.814 153.701 149.809H159.933C160.122 149.816 160.311 149.785 160.487 149.719C160.664 149.652 160.826 149.551 160.964 149.42C161.101 149.29 161.211 149.134 161.287 148.961C161.363 148.788 161.404 148.602 161.407 148.413C161.41 148.223 161.375 148.036 161.305 147.86C161.235 147.685 161.13 147.525 160.997 147.39C160.864 147.256 160.706 147.149 160.531 147.077C160.357 147.004 160.169 146.967 159.98 146.968H153.701Z" fill="#3F3D56"/>
<path d="M151.23 151.906C151.04 151.901 150.851 151.934 150.675 152.003C150.498 152.072 150.337 152.176 150.201 152.308C150.065 152.441 149.957 152.599 149.883 152.774C149.809 152.949 149.771 153.137 149.771 153.327C149.771 153.516 149.809 153.704 149.883 153.879C149.957 154.054 150.065 154.212 150.201 154.345C150.337 154.477 150.498 154.581 150.675 154.65C150.851 154.719 151.04 154.752 151.23 154.747H186.848C187.037 154.754 187.225 154.723 187.402 154.657C187.579 154.59 187.741 154.489 187.878 154.359C188.016 154.228 188.125 154.072 188.202 153.899C188.278 153.726 188.319 153.54 188.322 153.351C188.325 153.161 188.29 152.974 188.22 152.798C188.149 152.623 188.045 152.463 187.912 152.328C187.779 152.194 187.621 152.087 187.446 152.015C187.271 151.942 187.084 151.905 186.895 151.906H151.23Z" fill="#1AFF00"/>
<path d="M188.856 165.476H162.695V165.954H188.856C190.144 165.954 191.379 166.466 192.29 167.376C193.201 168.287 193.713 169.523 193.713 170.811C193.713 172.099 193.201 173.334 192.29 174.245C191.379 175.155 190.144 175.667 188.856 175.667H149.27C147.982 175.667 146.747 175.155 145.836 174.245C144.925 173.334 144.414 172.099 144.414 170.811C144.414 169.523 144.925 168.287 145.836 167.376C146.747 166.466 147.982 165.954 149.27 165.954H150.749V165.476H149.27C147.855 165.476 146.499 166.038 145.498 167.038C144.498 168.039 143.936 169.395 143.936 170.81C143.936 172.225 144.498 173.581 145.498 174.582C146.499 175.582 147.855 176.144 149.27 176.144H188.856C190.271 176.144 191.627 175.582 192.628 174.582C193.628 173.581 194.19 172.225 194.19 170.81C194.19 169.395 193.628 168.039 192.628 167.038C191.627 166.038 190.271 165.476 188.856 165.476Z" fill="white"/>
<path d="M153.701 164.214C153.511 164.209 153.323 164.242 153.146 164.311C152.969 164.38 152.808 164.484 152.672 164.616C152.536 164.749 152.428 164.907 152.354 165.082C152.28 165.257 152.242 165.445 152.242 165.635C152.242 165.824 152.28 166.012 152.354 166.187C152.428 166.362 152.536 166.52 152.672 166.653C152.808 166.785 152.969 166.889 153.146 166.958C153.323 167.027 153.511 167.06 153.701 167.055H159.933C160.122 167.062 160.311 167.031 160.487 166.965C160.664 166.898 160.826 166.797 160.964 166.666C161.101 166.536 161.211 166.38 161.287 166.207C161.363 166.034 161.404 165.848 161.407 165.658C161.41 165.469 161.375 165.282 161.305 165.106C161.235 164.931 161.13 164.771 160.997 164.636C160.864 164.502 160.706 164.395 160.531 164.323C160.357 164.25 160.169 164.213 159.98 164.214H153.701Z" fill="#3F3D56"/>
<path d="M151.23 169.39C151.04 169.385 150.851 169.418 150.675 169.487C150.498 169.556 150.337 169.66 150.201 169.792C150.065 169.925 149.957 170.083 149.883 170.258C149.809 170.433 149.771 170.621 149.771 170.811C149.771 171 149.809 171.188 149.883 171.363C149.957 171.538 150.065 171.696 150.201 171.829C150.337 171.961 150.498 172.065 150.675 172.134C150.851 172.203 151.04 172.236 151.23 172.231H186.848C187.037 172.238 187.225 172.207 187.402 172.141C187.579 172.074 187.741 171.973 187.878 171.843C188.016 171.712 188.125 171.556 188.202 171.383C188.278 171.21 188.319 171.024 188.322 170.835C188.325 170.645 188.29 170.458 188.22 170.282C188.149 170.107 188.045 169.947 187.912 169.812C187.779 169.678 187.621 169.571 187.446 169.499C187.271 169.426 187.084 169.389 186.895 169.39H151.23Z" fill="white"/>
<path d="M134.001 139.574C135.572 139.574 136.846 138.3 136.846 136.729C136.846 135.158 135.572 133.884 134.001 133.884C132.43 133.884 131.156 135.158 131.156 136.729C131.156 138.3 132.43 139.574 134.001 139.574Z" fill="#1AFF00"/>
<path d="M134.001 150.369C134.564 150.369 135.114 150.536 135.582 150.848C136.049 151.161 136.414 151.605 136.629 152.125C136.845 152.645 136.901 153.217 136.791 153.769C136.682 154.321 136.411 154.828 136.013 155.226C135.615 155.624 135.108 155.895 134.556 156.004C134.004 156.114 133.432 156.058 132.912 155.842C132.392 155.627 131.948 155.262 131.635 154.795C131.323 154.327 131.156 153.777 131.156 153.214C131.156 152.459 131.456 151.736 131.989 151.202C132.523 150.669 133.246 150.369 134.001 150.369V150.369Z" fill="#1AFF00"/>
<path d="M134.001 172.544C135.572 172.544 136.846 171.27 136.846 169.699C136.846 168.128 135.572 166.854 134.001 166.854C132.43 166.854 131.156 168.128 131.156 169.699C131.156 171.27 132.43 172.544 134.001 172.544Z" fill="white"/>
<path d="M206.357 139.574C207.928 139.574 209.202 138.3 209.202 136.729C209.202 135.158 207.928 133.884 206.357 133.884C204.786 133.884 203.512 135.158 203.512 136.729C203.512 138.3 204.786 139.574 206.357 139.574Z" fill="white"/>
<path d="M205.639 135.815L205.402 136.052L206.993 137.643L207.23 137.406L205.639 135.815Z" fill="white"/>
<path d="M207.077 135.815L205.486 137.406L205.723 137.643L207.314 136.052L207.077 135.815Z" fill="white"/>
<path d="M206.357 156.059C207.928 156.059 209.202 154.785 209.202 153.214C209.202 151.643 207.928 150.369 206.357 150.369C204.786 150.369 203.512 151.643 203.512 153.214C203.512 154.785 204.786 156.059 206.357 156.059Z" fill="white"/>
<path d="M205.639 152.3L205.402 152.537L206.993 154.128L207.23 153.891L205.639 152.3Z" fill="white"/>
<path d="M207.077 152.3L205.486 153.891L205.723 154.128L207.314 152.537L207.077 152.3Z" fill="white"/>
<path d="M206.357 172.544C207.928 172.544 209.202 171.27 209.202 169.699C209.202 168.128 207.928 166.854 206.357 166.854C204.786 166.854 203.512 168.128 203.512 169.699C203.512 171.27 204.786 172.544 206.357 172.544Z" fill="white"/>
<path d="M205.639 168.785L205.402 169.022L206.993 170.613L207.23 170.376L205.639 168.785Z" fill="white"/>
<path d="M207.077 168.785L205.486 170.376L205.723 170.613L207.314 169.022L207.077 168.785Z" fill="white"/>
<defs>
<linearGradient id="paint0_linear_1_598" x1="96.1773" y1="151.54" x2="96.1773" y2="151.517" gradientUnits="userSpaceOnUse">
<stop stop-color="#808080" stop-opacity="0.251"/>
<stop offset="0.54" stop-color="#808080" stop-opacity="0.122"/>
<stop offset="1" stop-color="#808080" stop-opacity="0.102"/>
</linearGradient>
</defs>
</svg>
