<svg width="20" height="19" viewBox="0 0 20 19" fill="none" xmlns="http://www.w3.org/2000/svg">
<path d="M14.739 0.993039L10.097 5.63204L5.45496 0.990039C5.2098 0.737882 4.91695 0.536985 4.59345 0.399031C4.26995 0.261076 3.92225 0.188819 3.57057 0.186461C3.21889 0.184103 2.87025 0.251691 2.54493 0.385295C2.2196 0.518898 1.92409 0.715851 1.67558 0.964698C1.42706 1.21354 1.2305 1.50932 1.09733 1.83482C0.964163 2.16032 0.897039 2.50905 0.899866 2.86073C0.902693 3.2124 0.975413 3.56001 1.1138 3.88333C1.25218 4.20664 1.45347 4.49922 1.70596 4.74404L6.34596 9.38604L1.70996 14.022C1.2258 14.523 0.957789 15.1941 0.963646 15.8908C0.969503 16.5875 1.24876 17.254 1.74127 17.7467C2.23378 18.2395 2.90013 18.5191 3.5968 18.5254C4.29347 18.5316 4.96472 18.2639 5.46596 17.78L10.097 13.134L14.735 17.774C14.9791 18.031 15.2721 18.2364 15.5969 18.3782C15.9217 18.5201 16.2716 18.5955 16.6259 18.6C16.9803 18.6045 17.332 18.538 17.6602 18.4045C17.9885 18.2709 18.2867 18.073 18.5373 17.8223C18.7878 17.5717 18.9857 17.2735 19.1192 16.9452C19.2526 16.6169 19.319 16.2652 19.3144 15.9108C19.3098 15.5564 19.2343 15.2066 19.0924 14.8818C18.9504 14.5571 18.7449 14.2641 18.488 14.02L13.858 9.38704L18.494 4.75104C18.9729 4.24915 19.2365 3.57986 19.2285 2.88618C19.2205 2.1925 18.9416 1.52945 18.4512 1.03872C17.9609 0.547987 17.2981 0.26849 16.6044 0.259954C15.9107 0.251418 15.2412 0.51452 14.739 0.993039Z" fill="#D7DBE6"/>
</svg>
