<svg width="25" height="27" viewBox="0 0 25 27" fill="none" xmlns="http://www.w3.org/2000/svg">
<path d="M23.857 2.12698H17.3V1.81098C17.3 0.782976 16.45 0.599976 15.415 0.599976H10.026C8.991 0.599976 8.151 0.782976 8.151 1.81098V2.12698H1.617C1.47028 2.12684 1.32497 2.15565 1.18939 2.21173C1.05381 2.26782 0.930619 2.35009 0.82687 2.45384C0.723121 2.55759 0.640848 2.68078 0.58476 2.81636C0.528673 2.95194 0.49987 3.09725 0.500002 3.24398V5.39998C0.499739 5.54683 0.528437 5.6923 0.584454 5.82805C0.64047 5.9638 0.722706 6.08717 0.826456 6.19111C0.930205 6.29504 1.05343 6.3775 1.18908 6.43376C1.32473 6.49002 1.47015 6.51898 1.617 6.51898H23.857C24.0039 6.51898 24.1493 6.49002 24.2849 6.43376C24.4206 6.3775 24.5438 6.29504 24.6475 6.19111C24.7513 6.08717 24.8335 5.9638 24.8895 5.82805C24.9456 5.6923 24.9743 5.54683 24.974 5.39998V3.24398C24.974 2.94773 24.8563 2.66362 24.6468 2.45414C24.4374 2.24466 24.1532 2.12698 23.857 2.12698Z" fill="white"/>
<path d="M21.5119 9.48798H3.96194C3.80423 9.48945 3.6486 9.52425 3.50528 9.59009C3.36196 9.65593 3.23417 9.75132 3.1303 9.87001C3.02643 9.98871 2.94883 10.128 2.90258 10.2788C2.85633 10.4296 2.84248 10.5885 2.86194 10.745L4.66194 24.363C4.72864 24.8925 4.98552 25.3796 5.38474 25.7338C5.78396 26.0879 6.29829 26.2849 6.83194 26.288H18.6419C19.1773 26.2873 19.6941 26.0914 20.0954 25.7371C20.4967 25.3827 20.755 24.8942 20.8219 24.363L22.6219 10.745C22.6418 10.5876 22.628 10.4277 22.5812 10.2761C22.5345 10.1245 22.456 9.98454 22.351 9.86561C22.246 9.74669 22.1169 9.6515 21.9722 9.58638C21.8275 9.52127 21.6706 9.48772 21.5119 9.48798Z" fill="white"/>
</svg>
