<svg width="26" height="25" viewBox="0 0 26 25" fill="none" xmlns="http://www.w3.org/2000/svg">
<path d="M15.489 18.339V22.862C15.489 23.0309 15.5224 23.1982 15.5871 23.3543C15.6519 23.5103 15.7469 23.652 15.8665 23.7713C15.9862 23.8906 16.1282 23.9851 16.2844 24.0494C16.4407 24.1137 16.6081 24.1465 16.777 24.146H24.477C24.8176 24.146 25.1442 24.0107 25.385 23.7699C25.6257 23.5291 25.761 23.2025 25.761 22.862V11.508C25.7615 10.9632 25.5457 10.4406 25.161 10.055L14.372 1.09996C13.9874 0.715492 13.4659 0.499512 12.922 0.499512C12.3782 0.499512 11.8566 0.715492 11.472 1.09996L0.677027 10.055C0.292361 10.4406 0.0765519 10.9632 0.0770272 11.508V22.862C0.0770272 23.2025 0.212305 23.5291 0.453102 23.7699C0.693899 24.0107 1.02049 24.146 1.36103 24.146H9.06703C9.40757 24.146 9.73416 24.0107 9.97495 23.7699C10.2157 23.5291 10.351 23.2025 10.351 22.862V18.339C10.351 17.6576 10.6217 17.0042 11.1035 16.5224C11.5853 16.0406 12.2387 15.77 12.92 15.77C13.2574 15.77 13.5915 15.8364 13.9031 15.9655C14.2148 16.0946 14.498 16.2838 14.7366 16.5224C14.9751 16.761 15.1644 17.0442 15.2935 17.3558C15.4226 17.6675 15.489 18.0016 15.489 18.339Z" fill="white"/>
</svg>
